PathFileType	4	(X/Y/Z)	C:/Users/beibeiliu/ov580/test_trc/capture2\sequence.18_training_dense_left.trc
DataRate	CameraRate	NumFrames	NumMarkers	Units	OrigDataRate	OrigDataStartFrame	OrigNumFrames
120	120	12	19	mm	120	100	398
Frame#	Time	ThumbCMC			ThumbMCP			ThumbIP			ThumbTip			IndexMCP			IndexPIP			IndexTip			MiddleMCP			MiddlePIP			MiddleTip			RingMCP			RingPIP			RingTip			PinkyMCP			PinkyPIP			PinkyTip			BackHand1			BackHand2			BackHand3	
		X0	Y0	Z0	X1	Y1	Z1	X2	Y2	Z2	X3	Y3	Z3	X4	Y4	Z4	X5	Y5	Z5	X6	Y6	Z6	X7	Y7	Z7	X8	Y8	Z8	X9	Y9	Z9	X10	Y10	Z10	X11	Y11	Z11	X12	Y12	Z12	X13	Y13	Z13	X14	Y14	Z14	X15	Y15	Z15	X16	Y16	Z16	X17	Y17	Z17	X18	Y18	Z18	
99	0.825	-132.473	77.5105	13.6325	-118.885	67.862	-10.4476	-106.509	68.6747	-33.086	-101.234	71.9224	-54.4719	-123.24	91.7531	-55.7379	-131.085	65.4472	-66.4482	-143.508	54.7578	-34.3742	-144.832	94.8937	-58.9816	-152.286	62.5015	-57.6393	-154.009	66.2995	-20.0929	-164.846	91.4615	-59.7129	-168.42	65.0707	-49.1697	-164.107	72.9692	-17.002	-178.059	98.5095	-50.9855	-181.282	69.7794	-42.8034	-175.77	76.9672	-12.4798	-167.576	125.289	-9.64942	-173.946	118.091	19.4068	-141.999	111.94	14.0627	
100	0.833333	-134.004	77.5505	18.0755	-116.163	71.1744	-9.58132	-105.639	74.5557	-31.8108	-97.5353	78.6052	-53.3576	-121.529	98.1323	-52.5866	-129.365	72.4737	-66.1589	-142.222	60.2631	-33.6966	-144.34	96.526	-61.5777	-150.85	67.4459	-59.8016	-150.944	67.9728	-21.2049	-162.121	98.0572	-57.5139	-165.572	68.7069	-50.7559	-164.076	76.1542	-15.366	-181.477	98.998	-52.7911	-178.306	71.6401	-43.2051	-174.457	77.3288	-11.1183	-168.657	126.693	-9.18934	-174.92	116.703	24.0346	-140.839	111.49	13.5027	
101	0.841667	-129.984	80.7306	15.3143	-119.562	74.6962	-7.64108	-107.423	81.0837	-31.1472	-97.9965	86.2865	-51.8828	-119.971	102.727	-51.0233	-125.227	77.6158	-65.165	-140.123	64.4677	-32.6509	-142.125	102.972	-56.031	-150.272	70.1901	-56.8255	-154.041	70.8417	-22.5694	-160.024	100.136	-57.1924	-165.919	69.3859	-47.5734	-163.524	76.4144	-15.9732	-179.485	101.491	-51.9681	-175.878	74.369	-44.4721	-174.297	78.7417	-9.83492	-168.656	127.581	-5.60574	-177.396	117.141	20.8285	-139.784	115.107	13.7071	
102	0.85	-128.54	80.8341	17.5755	-113.953	78.119	-7.56325	-104.178	83.9536	-29.0296	-96.3854	91.6053	-50.6965	-115.937	106.375	-50.2152	-122.007	80.5524	-62.8944	-136.835	67.898	-35.8342	-141.374	106.303	-56.534	-142.372	74.4357	-58.3772	-150.366	71.6007	-22.3093	-160.966	103.89	-55.0838	-160.653	72.9729	-48.6109	-163.128	77.2631	-15.5327	-175.684	105.055	-48.3648	-171.867	75.5994	-42.5274	-173.848	78.5898	-9.73723	-170.05	127.479	-4.08048	-174.656	115.138	23.7906	-143.405	115.574	16.4387	
103	0.858333	-132.467	80.3188	19.7094	-115.459	79.0071	-2.19971	-100.04	86.4353	-24.2166	-93.0261	97.2268	-45.4112	-117.554	112.822	-43.5638	-120.829	86.024	-59.0359	-131.79	70.881	-30.3566	-138.169	110.879	-50.965	-141.825	78.67	-55.781	-147.157	71.7575	-23.5877	-155.194	107.154	-51.5727	-156.285	77.0162	-49.5179	-159.899	78.153	-14.4686	-173.081	106.201	-48.0165	-168.415	77.3212	-42.3076	-169.596	77.0737	-8.73133	-171.008	125.383	-0.404967	-177.897	112.143	26.5126	-146.175	113.346	21.0128	
104	0.866667	-133.03	76.7068	27.2304	-113.999	80.5628	3.28663	-97.0507	89.4532	-16.4612	-88.9175	103.609	-37.2433	-114.001	115.809	-33.8686	-117.032	89.6	-51.1076	-130.588	73.4009	-23.8307	-136.622	114.253	-43.5016	-135.469	83.7943	-52.6295	-143.569	73.6048	-16.2693	-152.603	108.316	-48.8702	-151.183	80.3013	-48.381	-155.609	75.8042	-12.9917	-171.316	109.126	-41.0182	-164.606	79.2504	-41.6741	-169.738	72.8347	-9.49229	-173.798	124.54	5.95431	-185.626	106.717	34.2526	-146.584	107.164	29.9618	
105	0.875	-132.682	72.9121	33.8355	-111.471	74.7436	15.1316	-97.2691	90.0695	-3.18071	-87.5847	100.002	-17.9379	-108.574	113.924	-18.3728	-109.607	93.9514	-40.1135	-122.736	69.7578	-15.2249	-126.766	114.097	-29.3842	-126.242	86.1463	-44.0508	-137.513	68.3489	-12.0755	-147.705	111.249	-34.1478	-142.515	78.448	-39.5927	-152.505	71.3412	-6.13736	-167.043	106.173	-36.8017	-159.838	77.4446	-38.3475	-161.541	69.7578	-8.0135	-170.176	115.653	16.4319	-184.048	96.2346	39.8605	-150.414	102.346	35.0618	
106	0.883333	-129.02	62.5133	43.5712	-106.815	66.0536	26.4603	-92.0082	84.7153	8.83365	-82.7996	101.256	-8.75006	-104.387	109.378	-9.69695	-102.122	87.5163	-29.0323	-118.832	65.8806	-8.78435	-122.766	110.243	-22.7862	-121.004	83.0998	-34.6385	-137.606	63.9317	-5.59797	-141.735	107.881	-25.779	-140.128	78.0118	-35.3781	-150.593	64.9099	-6.24654	-156.962	101.916	-29.8553	-156.088	73.3971	-33.4777	-162.963	64.0277	0.345246	-170.851	109.732	20.1591	-185.542	86.7665	43.4894	-148.237	91.4515	46.6773	
107	0.891667	-131.778	52.9957	48.5782	-106.248	62.9084	32.0976	-91.297	76.0444	19.2836	-78.6834	93.1168	4.2042	-101.573	102.617	3.7096	-98.3592	82.0227	-20.3769	-117.286	59.6188	-2.28306	-119.25	103.339	-14.1294	-116.557	74.8627	-26.2649	-133.251	57.1778	-3.0554	-137.979	100.808	-20.7577	-136.925	72.2064	-31.2358	-145.113	57.3612	0.139703	-153.794	97.4196	-23.29	-149.602	69.7314	-26.7314	-157.373	57.9961	2.77765	-170.595	102.405	26.5061	-184.841	78.3638	47.0729	-148.593	85.2943	53.4853	
108	0.9	-131.858	45.5203	54.9564	-109.036	54.0237	38.2116	-88.675	67.5536	27.2726	-77.9703	81.2547	13.1953	-99.4047	94.6887	9.96821	-94.8281	73.948	-13.4183	-111.774	49.2694	6.32243	-114.003	95.5483	-6.84061	-113.967	65.7667	-19.6926	-129.612	49.2054	6.75881	-133.468	91.7329	-17.9041	-132.964	63.8835	-25.0521	-144.498	50.8921	5.83426	-151.426	88.4606	-18.9707	-148.193	58.3958	-20.5671	-154.245	48.9819	6.96434	-167.081	94.6767	32.5145	-182.946	73.9266	50.8986	-148.805	77.2764	55.3499	
109	0.908333	-131.396	42.1007	57.8545	-104.819	45.0076	45.7179	-88.8124	58.9808	31.3081	-75.1943	75.5024	16.6836	-99.2261	87.8341	11.5286	-91.7584	69.7946	-8.09721	-108.071	43.7585	5.20128	-115.263	89.4441	0.439501	-110.352	60.0837	-16.6346	-130.096	43.4856	6.54287	-130.951	85.797	-12.2019	-129.749	54.7307	-17.8201	-143.966	43.8017	7.11583	-148.839	81.6837	-17.6243	-142.595	53	-15.4106	-156.235	43.1133	11.9771	-168.627	86.6736	35.2585	-183.924	67.733	55.3055	-149.576	70.4348	62.3412	
110	0.916667	-131.956	33.0005	64.6879	-103.389	40.0439	49.0531	-87.2352	53.2976	35.3785	-78.1849	68.5196	19.7829	-97.5615	82.9317	17.7053	-92.0039	63.1397	-5.30491	-106.044	38.211	5.94164	-110.81	82.6413	1.70646	-110.073	54.6623	-13.8056	-128.86	37.8553	15.5702	-127.779	80.5621	-7.62049	-126.663	51.1941	-16.1676	-143.51	39.3423	11.3209	-145.902	76.4971	-11.8239	-141.797	48.6148	-13.5401	-152.643	41.1874	13.4964	-167.767	82.1641	36.8123	-184.871	63.3288	55.9559	-148.345	65.8442	65.8612	
